<svg xmlns="http://www.w3.org/2000/svg" viewBox="0 0 509.34 56"><defs><style>.cls-1{fill:#bfa32b;}.cls-2{fill:#ffd836;}.cls-3{fill:#aa9022;}.cls-4{fill:#eac324;}</style></defs><title>Asset 2</title><g id="Layer_2" data-name="Layer 2"><g id="Layer_1-2" data-name="Layer 1"><path class="cls-1" d="M504.79,36h-1.6c-2.1,0-3,.55-3,1.6v4.6c0,1,.9,1.6,3,1.6h1.6c2.1,0,3-.55,3-1.6V37.6C507.79,36.55,506.89,36,504.79,36Zm1.55-27.4h-2.15c-2.1,0-3,.55-3,1.6V31c0,1.05.5,1.6,2.55,1.6h.55c2,0,2.4-.55,2.55-1.6.85-7,1.65-14,2.5-21C509.34,9.1,508.29,8.6,506.34,8.6ZM484.79,23c2.5,0,3.6,2.15,3.6,5h-8.1C480.89,24.2,482.69,23,484.79,23Zm0-5.85c-7.15,0-12.15,3.8-12.15,13.65,0,8,4,13.3,13.05,13.3,2.8,0,9-1.1,9-3.6,0-1-1.5-3.8-2.6-3.8-.7,0-2.9,1.55-6.05,1.55S480.64,37,480.29,33H493c.65,0,2.55-2.1,2.55-3C495.59,23.1,492.64,17.15,484.79,17.15Zm-21.6-6h-1.55c-1.65,0-2.55.55-2.7,1.6l-.65,4.75h-.8c-1,0-1.5.75-1.5,2.5v.85c0,1.75.45,2.5,1.5,2.5h.8V36c0,5.55,2.6,8.1,7.3,8.1,1.55,0,4.8-.15,4.8-2.45,0-.4-.55-3.6-1.55-3.6-.3,0-.9.2-1.35.2-1.3,0-1.8-.65-1.8-2.15V23.4h2.45c1,0,1.5-.75,1.5-2.5V20c0-1.75-.45-2.5-1.5-2.5h-2.45V12.8C465.69,11.75,464.94,11.2,463.19,11.2ZM442.74,23c2.5,0,3.6,2.15,3.6,5h-8.1C438.84,24.2,440.64,23,442.74,23Zm0-5.85c-7.15,0-12.15,3.8-12.15,13.65,0,8,4,13.3,13.05,13.3,2.8,0,9-1.1,9-3.6,0-1-1.5-3.8-2.6-3.8-.7,0-2.9,1.55-6.05,1.55S438.59,37,438.24,33H451c.65,0,2.55-2.1,2.55-3C453.54,23.1,450.59,17.15,442.74,17.15ZM422.19,6h-1.4c-2.1,0-3,.55-3,1.6V36c0,5.55,2.6,8.1,7.3,8.1,1.55,0,4.8-.15,4.8-2.45,0-.4-.55-3.6-1.55-3.6-.3,0-.9.2-1.35.2-1.3,0-1.8-.65-1.8-2.15V7.6C425.19,6.55,424.29,6,422.19,6ZM402,23.2c2.75,0,4,2.6,4,7.45s-1.5,7.6-4.65,7.6a7,7,0,0,1-3.5-1V26.15C398.79,24.6,400.09,23.2,402,23.2Zm2.2-6.05a7.45,7.45,0,0,0-6.7,3.75c-.3-1.2-.4-3.2-2-3.2-1.25,0-5.6.4-5.6,1.6a40.53,40.53,0,0,1,.6,7.05V52.4c0,1.05.9,1.6,3,1.6h1.4c2.1,0,3-.55,3-1.6V42.55A8.68,8.68,0,0,0,403,44.1c6.75,0,10.55-5.3,10.55-13.45C413.54,21.95,409.59,17.15,404.19,17.15Zm-26.8,0a10.17,10.17,0,0,0-7.7,3.8c-1-2.6-3.15-3.8-6.6-3.8a9.62,9.62,0,0,0-7.4,3.8c-.3-1.25-.4-3.25-2-3.25-1.25,0-5.6.4-5.6,1.6a40.47,40.47,0,0,1,.6,7.05V42.2c0,1,.9,1.6,3,1.6h1.4c2.1,0,3-.55,3-1.6V26.15c.6-1.15,1.9-2.9,4-2.9s3,1.15,3,3.1V42.2c0,1,.9,1.6,3,1.6h1.4c2.1,0,3-.55,3-1.6V26.1c.6-1.05,1.8-2.85,4-2.85s3,1.15,3,3.1V42.2c0,1,.9,1.6,3,1.6h1.4c2.1,0,3-.55,3-1.6v-17C384.7,19.7,382.4,17.15,377.4,17.15ZM332.4,23c3.2,0,4.6,2.6,4.6,7.6s-1.4,7.65-4.6,7.65-4.65-2.65-4.65-7.65S329.2,23,332.4,23Zm0-5.85c-8,0-12.15,4.75-12.15,13.45s4.2,13.5,12.15,13.5,12.1-4.8,12.1-13.5S340.35,17.15,332.4,17.15ZM307.15,8.3c-11.1,0-16.7,5.9-16.7,17.8,0,12.35,5.25,18,16.45,18,4,0,11.15-1.2,11.15-4.2,0-.85-1.35-4.35-3-4.35-.75,0-3.45,2-8.2,2-5.75,0-8.55-3.9-8.55-11.4S301.1,14.9,307,14.9c4.75,0,6.75,1.6,7.35,1.6,1.25,0,3.25-3.3,3.25-4.7C317.6,9.7,311.55,8.3,307.15,8.3ZM265.5,23c2.5,0,3.6,2.15,3.6,5H261C261.6,24.2,263.4,23,265.5,23Zm0-5.85c-7.15,0-12.15,3.8-12.15,13.65,0,8,4,13.3,13.05,13.3,2.8,0,9-1.1,9-3.6,0-1-1.5-3.8-2.6-3.8-.7,0-2.9,1.55-6.05,1.55S261.35,37,261,33h12.75c.65,0,2.55-2.1,2.55-3C276.3,23.1,273.35,17.15,265.5,17.15ZM236,43.5c5.7.4,7.7,1,7.7,2.5s-1.7,2.45-5.15,2.45c-3.7,0-5.25-.9-5.25-2.25C233.35,45.2,234.3,44.1,236,43.5Zm2.25-21c2.05,0,3.75,1,3.75,3.55s-1.7,3.5-3.75,3.5-3.75-1-3.75-3.5S236.25,22.5,238.3,22.5Zm0-5.35c-6,0-10.75,2.45-10.75,8.9,0,3.7,1.6,6.1,4,7.45-1.9,1-3,2.45-3,4.15a4,4,0,0,0,2.15,3.75l-.05.2c-3,1.15-4.55,3.2-4.55,5.8,0,4.55,3.85,6.9,11.9,6.9,7.75,0,12.9-3.35,12.9-8.5s-3.9-6.5-7.75-7.25-7.4-.65-7.4-2.3c0-.9,1-1.35,3-1.35,5.7,0,10.2-2.6,10.2-8.85a5.43,5.43,0,0,0-.8-2.8l.1-.2a17.09,17.09,0,0,0,2.15.2c.8,0,1.2-.7,1.2-2.35V20c0-1.75-.45-2.5-1.5-2.5h-8.05A19,19,0,0,0,238.3,17.15Zm-22.65,0a9.72,9.72,0,0,0-7.45,3.8c-.3-1.25-.4-3.25-2-3.25-1.25,0-5.6.4-5.6,1.6a40.47,40.47,0,0,1,.6,7.05V42.2c0,1,.9,1.6,3,1.6h1.4c2.1,0,3-.55,3-1.6V26.15c.6-1.15,2-2.9,4-2.9,2.2,0,3,1.15,3,3.1V42.2c0,1,.9,1.6,3,1.6H220c2.1,0,3-.55,3-1.6v-17C223,19.7,220.65,17.15,215.65,17.15ZM186.4,23c2.5,0,3.6,2.15,3.6,5h-8.1C182.5,24.2,184.3,23,186.4,23Zm0-5.85c-7.15,0-12.15,3.8-12.15,13.65,0,8,4,13.3,13.05,13.3,2.8,0,9-1.1,9-3.6,0-1-1.5-3.8-2.6-3.8-.7,0-2.9,1.55-6.05,1.55S182.25,37,181.9,33h12.75c.65,0,2.55-2.1,2.55-3C197.2,23.1,194.25,17.15,186.4,17.15ZM165.85,6h-1.4c-2.1,0-3,.55-3,1.6V36c0,5.55,2.6,8.1,7.3,8.1,1.55,0,4.8-.15,4.8-2.45,0-.4-.55-3.6-1.55-3.6-.3,0-.9.2-1.35.2-1.3,0-1.8-.65-1.8-2.15V7.6C168.85,6.55,167.95,6,165.85,6ZM152,6h-1.4c-2.1,0-3,.55-3,1.6V36c0,5.55,2.6,8.1,7.3,8.1,1.55,0,4.8-.15,4.8-2.45,0-.4-.55-3.6-1.55-3.6-.3,0-.9.2-1.35.2-1.3,0-1.8-.65-1.8-2.15V7.6C155,6.55,154.1,6,152,6ZM134.65,32.35V35.1a5.17,5.17,0,0,1-4.5,3.15,2.19,2.19,0,0,1-2.5-2.2C127.65,33.65,129.9,32.35,134.65,32.35Zm-3.35-15.2c-5.55,0-9.55,1.75-9.55,3.45,0,1,1.55,4,2.6,4,.6,0,2.75-1.6,6.4-1.6,2.75,0,3.9,1,3.9,2.85V27.5c-12.7,0-14.35,5.2-14.35,9.3s2,7.3,7.4,7.3A8.7,8.7,0,0,0,135,40.3c.3,1.35.4,3.45,2,3.45,1.25,0,5.6-.4,5.6-1.6a43.05,43.05,0,0,1-.6-7.25V25.5C142,20.65,139.2,17.15,131.3,17.15ZM98.65,6h-1.4c-2.1,0-3,.55-3,1.6V42.2c0,1,.9,1.6,3,1.6h1.4c2.1,0,3-.55,3-1.6V26.15c.6-1.15,2-2.9,4-2.9s3.2,1.15,3.2,3.1V42.2c0,1,.9,1.6,3,1.6h1.4c2.1,0,3-.55,3-1.6v-17c0-5.55-2.55-8.1-7.55-8.1a9.31,9.31,0,0,0-7.05,3.4V7.6C101.65,6.55,100.75,6,98.65,6ZM80,8.3c-11.1,0-16.7,5.9-16.7,17.8,0,12.35,5.25,18,16.45,18,4,0,11.15-1.2,11.15-4.2,0-.85-1.35-4.35-3-4.35-.75,0-3.45,2-8.2,2-5.75,0-8.55-3.9-8.55-11.4S73.9,14.9,79.8,14.9c4.75,0,6.75,1.6,7.35,1.6,1.25,0,3.25-3.3,3.25-4.7C90.4,9.7,84.35,8.3,80,8.3Z"/><path class="cls-2" d="M504.79,34h-1.6c-2.1,0-3,.55-3,1.6v4.6c0,1,.9,1.6,3,1.6h1.6c2.1,0,3-.55,3-1.6V35.6C507.79,34.55,506.89,34,504.79,34Zm1.55-27.4h-2.15c-2.1,0-3,.55-3,1.6V29c0,1.05.5,1.6,2.55,1.6h.55c2,0,2.4-.55,2.55-1.6.85-7,1.65-14,2.5-21C509.34,7.1,508.29,6.6,506.34,6.6ZM484.79,21c2.5,0,3.6,2.15,3.6,5h-8.1C480.89,22.2,482.69,21,484.79,21Zm0-5.85c-7.15,0-12.15,3.8-12.15,13.65,0,8,4,13.3,13.05,13.3,2.8,0,9-1.1,9-3.6,0-1-1.5-3.8-2.6-3.8-.7,0-2.9,1.55-6.05,1.55S480.64,35,480.29,31H493c.65,0,2.55-2.1,2.55-3C495.59,21.1,492.64,15.15,484.79,15.15Zm-21.6-6h-1.55c-1.65,0-2.55.55-2.7,1.6l-.65,4.75h-.8c-1,0-1.5.75-1.5,2.5v.85c0,1.75.45,2.5,1.5,2.5h.8V34c0,5.55,2.6,8.1,7.3,8.1,1.55,0,4.8-.15,4.8-2.45,0-.4-.55-3.6-1.55-3.6-.3,0-.9.2-1.35.2-1.3,0-1.8-.65-1.8-2.15V21.4h2.45c1,0,1.5-.75,1.5-2.5V18c0-1.75-.45-2.5-1.5-2.5h-2.45V10.8C465.69,9.75,464.94,9.2,463.19,9.2ZM442.74,21c2.5,0,3.6,2.15,3.6,5h-8.1C438.84,22.2,440.64,21,442.74,21Zm0-5.85c-7.15,0-12.15,3.8-12.15,13.65,0,8,4,13.3,13.05,13.3,2.8,0,9-1.1,9-3.6,0-1-1.5-3.8-2.6-3.8-.7,0-2.9,1.55-6.05,1.55S438.59,35,438.24,31H451c.65,0,2.55-2.1,2.55-3C453.54,21.1,450.59,15.15,442.74,15.15ZM422.19,4h-1.4c-2.1,0-3,.55-3,1.6V34c0,5.55,2.6,8.1,7.3,8.1,1.55,0,4.8-.15,4.8-2.45,0-.4-.55-3.6-1.55-3.6-.3,0-.9.2-1.35.2-1.3,0-1.8-.65-1.8-2.15V5.6C425.19,4.55,424.29,4,422.19,4ZM402,21.2c2.75,0,4,2.6,4,7.45s-1.5,7.6-4.65,7.6a7,7,0,0,1-3.5-1V24.15C398.79,22.6,400.09,21.2,402,21.2Zm2.2-6.05a7.45,7.45,0,0,0-6.7,3.75c-.3-1.2-.4-3.2-2-3.2-1.25,0-5.6.4-5.6,1.6a40.53,40.53,0,0,1,.6,7.05V50.4c0,1.05.9,1.6,3,1.6h1.4c2.1,0,3-.55,3-1.6V40.55A8.68,8.68,0,0,0,403,42.1c6.75,0,10.55-5.3,10.55-13.45C413.54,19.95,409.59,15.15,404.19,15.15Zm-26.8,0a10.17,10.17,0,0,0-7.7,3.8c-1-2.6-3.15-3.8-6.6-3.8a9.62,9.62,0,0,0-7.4,3.8c-.3-1.25-.4-3.25-2-3.25-1.25,0-5.6.4-5.6,1.6a40.47,40.47,0,0,1,.6,7.05V40.2c0,1,.9,1.6,3,1.6h1.4c2.1,0,3-.55,3-1.6V24.15c.6-1.15,1.9-2.9,4-2.9s3,1.15,3,3.1V40.2c0,1,.9,1.6,3,1.6h1.4c2.1,0,3-.55,3-1.6V24.1c.6-1.05,1.8-2.85,4-2.85s3,1.15,3,3.1V40.2c0,1,.9,1.6,3,1.6h1.4c2.1,0,3-.55,3-1.6v-17C384.7,17.7,382.4,15.15,377.4,15.15ZM332.4,21c3.2,0,4.6,2.6,4.6,7.6s-1.4,7.65-4.6,7.65-4.65-2.65-4.65-7.65S329.2,21,332.4,21Zm0-5.85c-8,0-12.15,4.75-12.15,13.45s4.2,13.5,12.15,13.5,12.1-4.8,12.1-13.5S340.35,15.15,332.4,15.15ZM307.15,6.3c-11.1,0-16.7,5.9-16.7,17.8,0,12.35,5.25,18,16.45,18,4,0,11.15-1.2,11.15-4.2,0-.85-1.35-4.35-3-4.35-.75,0-3.45,2-8.2,2-5.75,0-8.55-3.9-8.55-11.4S301.1,12.9,307,12.9c4.75,0,6.75,1.6,7.35,1.6,1.25,0,3.25-3.3,3.25-4.7C317.6,7.7,311.55,6.3,307.15,6.3ZM265.5,21c2.5,0,3.6,2.15,3.6,5H261C261.6,22.2,263.4,21,265.5,21Zm0-5.85c-7.15,0-12.15,3.8-12.15,13.65,0,8,4,13.3,13.05,13.3,2.8,0,9-1.1,9-3.6,0-1-1.5-3.8-2.6-3.8-.7,0-2.9,1.55-6.05,1.55S261.35,35,261,31h12.75c.65,0,2.55-2.1,2.55-3C276.3,21.1,273.35,15.15,265.5,15.15ZM236,41.5c5.7.4,7.7,1,7.7,2.5s-1.7,2.45-5.15,2.45c-3.7,0-5.25-.9-5.25-2.25C233.35,43.2,234.3,42.1,236,41.5Zm2.25-21c2.05,0,3.75,1,3.75,3.55s-1.7,3.5-3.75,3.5-3.75-1-3.75-3.5S236.25,20.5,238.3,20.5Zm0-5.35c-6,0-10.75,2.45-10.75,8.9,0,3.7,1.6,6.1,4,7.45-1.9,1-3,2.45-3,4.15a4,4,0,0,0,2.15,3.75l-.05.2c-3,1.15-4.55,3.2-4.55,5.8,0,4.55,3.85,6.9,11.9,6.9,7.75,0,12.9-3.35,12.9-8.5s-3.9-6.5-7.75-7.25-7.4-.65-7.4-2.3c0-.9,1-1.35,3-1.35,5.7,0,10.2-2.6,10.2-8.85a5.43,5.43,0,0,0-.8-2.8l.1-.2a17.09,17.09,0,0,0,2.15.2c.8,0,1.2-.7,1.2-2.35V18c0-1.75-.45-2.5-1.5-2.5h-8.05A19,19,0,0,0,238.3,15.15Zm-22.65,0a9.72,9.72,0,0,0-7.45,3.8c-.3-1.25-.4-3.25-2-3.25-1.25,0-5.6.4-5.6,1.6a40.47,40.47,0,0,1,.6,7.05V40.2c0,1,.9,1.6,3,1.6h1.4c2.1,0,3-.55,3-1.6V24.15c.6-1.15,2-2.9,4-2.9,2.2,0,3,1.15,3,3.1V40.2c0,1,.9,1.6,3,1.6H220c2.1,0,3-.55,3-1.6v-17C223,17.7,220.65,15.15,215.65,15.15ZM186.4,21c2.5,0,3.6,2.15,3.6,5h-8.1C182.5,22.2,184.3,21,186.4,21Zm0-5.85c-7.15,0-12.15,3.8-12.15,13.65,0,8,4,13.3,13.05,13.3,2.8,0,9-1.1,9-3.6,0-1-1.5-3.8-2.6-3.8-.7,0-2.9,1.55-6.05,1.55S182.25,35,181.9,31h12.75c.65,0,2.55-2.1,2.55-3C197.2,21.1,194.25,15.15,186.4,15.15ZM165.85,4h-1.4c-2.1,0-3,.55-3,1.6V34c0,5.55,2.6,8.1,7.3,8.1,1.55,0,4.8-.15,4.8-2.45,0-.4-.55-3.6-1.55-3.6-.3,0-.9.2-1.35.2-1.3,0-1.8-.65-1.8-2.15V5.6C168.85,4.55,167.95,4,165.85,4ZM152,4h-1.4c-2.1,0-3,.55-3,1.6V34c0,5.55,2.6,8.1,7.3,8.1,1.55,0,4.8-.15,4.8-2.45,0-.4-.55-3.6-1.55-3.6-.3,0-.9.2-1.35.2-1.3,0-1.8-.65-1.8-2.15V5.6C155,4.55,154.1,4,152,4ZM134.65,30.35V33.1a5.17,5.17,0,0,1-4.5,3.15,2.19,2.19,0,0,1-2.5-2.2C127.65,31.65,129.9,30.35,134.65,30.35Zm-3.35-15.2c-5.55,0-9.55,1.75-9.55,3.45,0,1,1.55,4,2.6,4,.6,0,2.75-1.6,6.4-1.6,2.75,0,3.9,1,3.9,2.85V25.5c-12.7,0-14.35,5.2-14.35,9.3s2,7.3,7.4,7.3A8.7,8.7,0,0,0,135,38.3c.3,1.35.4,3.45,2,3.45,1.25,0,5.6-.4,5.6-1.6a43.05,43.05,0,0,1-.6-7.25V23.5C142,18.65,139.2,15.15,131.3,15.15ZM98.65,4h-1.4c-2.1,0-3,.55-3,1.6V40.2c0,1,.9,1.6,3,1.6h1.4c2.1,0,3-.55,3-1.6V24.15c.6-1.15,2-2.9,4-2.9s3.2,1.15,3.2,3.1V40.2c0,1,.9,1.6,3,1.6h1.4c2.1,0,3-.55,3-1.6v-17c0-5.55-2.55-8.1-7.55-8.1a9.31,9.31,0,0,0-7.05,3.4V5.6C101.65,4.55,100.75,4,98.65,4ZM80,6.3c-11.1,0-16.7,5.9-16.7,17.8,0,12.35,5.25,18,16.45,18,4,0,11.15-1.2,11.15-4.2,0-.85-1.35-4.35-3-4.35-.75,0-3.45,2-8.2,2-5.75,0-8.55-3.9-8.55-11.4S73.9,12.9,79.8,12.9c4.75,0,6.75,1.6,7.35,1.6,1.25,0,3.25-3.3,3.25-4.7C90.4,7.7,84.35,6.3,80,6.3Z"/><circle class="cls-3" cx="26" cy="30" r="26"/><circle class="cls-4" cx="26" cy="26" r="26"/><path class="cls-1" d="M44.87,22.95l-8.5,8.29,2,8c0,.16,0,4,0,4.21,0,.61-.28,1.17-1,1.17a1.91,1.91,0,0,1-.94-.28L26,38.77,15.49,44.29a2,2,0,0,1-.94.28c-.68,0-1-.56-1-1.17,0-.16,0-3.93,0-4.09l2.06-8.08L7.11,22.95a1.82,1.82,0,0,1-.58-1.12c0-.7-.34-4.34.24-4.44L19.59,19,24.85,8.39c.21-.45.61-1,1.15-1s.94.51,1.15,1L32.41,19l12.84-1.68c.56.09.22,3.77.22,4.47A1.75,1.75,0,0,1,44.87,22.95Z"/><path class="cls-1" d="M44.87,18.95l-8.5,8.29,2,11.7a3.26,3.26,0,0,1,0,.47c0,.61-.28,1.17-1,1.17a1.91,1.91,0,0,1-.94-.28L26,34.77,15.49,40.29a2,2,0,0,1-.94.28c-.68,0-1-.56-1-1.17a3.3,3.3,0,0,1,0-.47l2-11.7L7.11,18.95a1.82,1.82,0,0,1-.58-1.12c0-.7.73-1,1.31-1.08L19.59,15,24.85,4.39c.21-.45.61-1,1.15-1s.94.51,1.15,1L32.41,15l11.75,1.71c.56.09,1.31.38,1.31,1.08A1.75,1.75,0,0,1,44.87,18.95Z"/><path class="cls-2" d="M44.87,18.95l-8.5,8.29,2,11.7a3.26,3.26,0,0,1,0,.47c0,.61-.28,1.17-1,1.17a1.91,1.91,0,0,1-.94-.28L26,34.77,15.49,40.29a2,2,0,0,1-.94.28c-.68,0-1-.56-1-1.17a3.3,3.3,0,0,1,0-.47l2-11.7L7.11,18.95a1.82,1.82,0,0,1-.58-1.12c0-.7.73-1,1.31-1.08L19.59,15,24.85,4.39c.21-.45.61-1,1.15-1s.94.51,1.15,1L32.41,15l11.75,1.71c.56.09,1.31.38,1.31,1.08A1.75,1.75,0,0,1,44.87,18.95Z"/></g></g></svg>