<svg xmlns="http://www.w3.org/2000/svg" xmlns:xlink="http://www.w3.org/1999/xlink" viewBox="0 0 179.98 195.26"><defs><style>.cls-1{fill:#674822;}.cls-2{fill:#523713;}.cls-3{fill:#fbad18;}.cls-4{fill:#d99714;}.cls-5{fill:#8e6536;}.cls-6{fill:#a87c44;}.cls-7{fill:#efe1db;}.cls-8{fill:#fec00f;}.cls-9{fill:#231f20;}.cls-10,.cls-16{fill:#fff;}.cls-11{fill:#2a1f20;}.cls-12{fill:#ad790a;}.cls-13{fill:#ae3114;}.cls-14{fill:url(#radial-gradient);}.cls-15{fill:#b32025;}.cls-16{opacity:0.32;}</style><radialGradient id="radial-gradient" cx="142.61" cy="139.98" r="32" gradientTransform="translate(-19.66 0.9) scale(1.13)" gradientUnits="userSpaceOnUse"><stop offset="0" stop-color="#ef4828"/><stop offset="0.38" stop-color="#e7402a"/><stop offset="0.98" stop-color="#d02c31"/><stop offset="1" stop-color="#cf2b31"/></radialGradient></defs><title>owl-heart</title><g id="Layer_2" data-name="Layer 2"><g id="owl_heart" data-name="owl heart"><path class="cls-1" d="M136.51,112.95s16.67,3.14,29.67-21.49c0,0,22.42,66.79-53.67,66.79Z"/><path class="cls-2" d="M165.27,132.66a42.67,42.67,0,0,0,2.22-6.28l-7.65-9.54Z"/><path class="cls-2" d="M154,147a38.09,38.09,0,0,0,4.69-4.31l-5.44-13.3Z"/><path class="cls-2" d="M137.46,155.14q2.79-.8,5.27-1.79l-1.47-13.79Z"/><path class="cls-2" d="M118.46,158.09q4.4-.22,8.33-.75a82,82,0,0,0,5.51-20.09C134,125.62,121.42,151.81,118.46,158.09Z"/><path class="cls-3" d="M52.47,180.79s-3.61,16.3-9.61,14.3.65-16.84.65-16.84Z"/><path class="cls-3" d="M43.72,178.37s-6.56,15.35-12.09,12.27,3.76-16.43,3.76-16.43Z"/><path class="cls-3" d="M84.93,180.79s3.61,16.3,9.61,14.3-.65-16.84-.65-16.84Z"/><path class="cls-3" d="M93.68,178.37s6.56,15.35,12.09,12.27S102,174.21,102,174.21Z"/><path class="cls-4" d="M41.81,182.24l.16.06q.18-.53.35-1Z"/><path class="cls-4" d="M95.34,182l.11,0-.37-.7Z"/><path class="cls-4" d="M43.52,178.25v0l.21.11s-.53,1.23-1.41,2.92q-.17.48-.35,1a73.44,73.44,0,0,0,9.29,2.81c.79-2.42,1.21-4.32,1.21-4.32Z"/><path class="cls-4" d="M43.51,178.26l-8.12-4s-1.14,1.65-2.39,3.92a65.33,65.33,0,0,0,8.81,4.11l.51-.95C42.94,179.56,43.47,178.36,43.51,178.26Z"/><path class="cls-4" d="M43.72,178.37l-.21-.11c0,.1-.57,1.3-1.19,3C43.2,179.6,43.72,178.37,43.72,178.37Z"/><path class="cls-4" d="M93.68,178.37l.21-.11v0l-9,2.54s.4,1.8,1.15,4.14A75.55,75.55,0,0,0,95.34,182l-.26-.74C94.2,179.6,93.68,178.37,93.68,178.37Z"/><path class="cls-4" d="M93.89,178.26c0,.1.57,1.3,1.19,3l.37.7a67,67,0,0,0,8.79-4.15c-1.18-2.12-2.23-3.63-2.23-3.63Z"/><path class="cls-4" d="M95.08,181.29c-.62-1.73-1.15-2.93-1.19-3l-.21.11S94.2,179.6,95.08,181.29Z"/><path class="cls-5" d="M127.77,6.48l-2,10.27A34.67,34.67,0,0,0,119.6,0s-3.82,37.14-51,37.25C21.5,37.14,17.68,0,17.68,0a34.67,34.67,0,0,0-6.12,16.75l-2-10.27s-17.2,78.4-5.33,127.76c11.7,48.66,59.33,48.6,64.26,48.66h.42c4.93-.06,52.5-.83,64.26-48.66C145.22,84.95,127.77,6.48,127.77,6.48Z"/><path class="cls-6" d="M68.07,86.08H59l-16.25,23.7-17.25,2.46c7.25,28,2.79,58.75,2.79,58.75,17.12,11.56,36.49,11.87,39.54,11.91h1c3,0,22.43-.35,39.54-11.91,0,0-4.46-30.75,2.79-58.75l-17.25-2.46L77.68,86.08h-9"/><path class="cls-3" d="M68.64,99s-5.79-.5-9,5.75c0,0,1.5,10.51,9,14.09,7.54-3.58,9-14.09,9-14.09C74.43,98.5,68.64,99,68.64,99Z"/><path class="cls-1" d="M.85,112.95s21.78,15.19,21.81,53.58C22.65,166.52-4.53,154.7.85,112.95Z"/><rect class="cls-1" x="59.18" y="83.58" width="19" height="9"/><path class="cls-4" d="M68.64,118.84c-7.54-3.58-9-14.09-9-14.09a15.28,15.28,0,0,0,9,7.75h.06a15.28,15.28,0,0,0,9-7.75s-1.5,10.51-9,14.09Z"/><path class="cls-1" d="M1.59,89.58a30.26,30.26,0,0,0,60.51,0H53.17a21.33,21.33,0,0,1-42.65,0Z"/><path class="cls-1" d="M126.76,89.58a21.33,21.33,0,0,1-42.65,0H75.18a30.25,30.25,0,0,0,60.51,0Z"/><ellipse class="cls-6" cx="100.79" cy="84.15" rx="22.47" ry="25.63"/><ellipse class="cls-7" cx="98.1" cy="85.08" rx="18.5" ry="21.1"/><circle class="cls-8" cx="96.26" cy="83.08" r="7.33"/><circle class="cls-9" cx="96.26" cy="83.08" r="3.58"/><circle class="cls-10" cx="93.64" cy="80.17" r="2"/><path class="cls-11" d="M75.18,86.58a30.25,30.25,0,1,0,30.25-30.25A30.25,30.25,0,0,0,75.18,86.58Zm8.93,0a21.33,21.33,0,1,1,21.33,21.33A21.33,21.33,0,0,1,84.1,86.58Z"/><rect class="cls-11" x="59.18" y="80.58" width="19" height="9"/><ellipse class="cls-6" cx="36.48" cy="84.15" rx="22.47" ry="25.63"/><ellipse class="cls-7" cx="39.18" cy="85.08" rx="18.5" ry="21.1"/><circle class="cls-8" cx="41.01" cy="83.08" r="7.33"/><circle class="cls-9" cx="41.01" cy="83.08" r="3.58"/><circle class="cls-10" cx="38.51" cy="80.17" r="2"/><path class="cls-11" d="M31.84,56.33A30.25,30.25,0,1,0,62.1,86.58,30.26,30.26,0,0,0,31.84,56.33Zm0,51.58A21.33,21.33,0,1,1,53.17,86.58,21.33,21.33,0,0,1,31.84,107.91Z"/><path class="cls-12" d="M68.79,116.08a15.77,15.77,0,0,1-8.39-9.9S62.55,110,68.64,112h.05a15.41,15.41,0,0,0,8.49-6.21,16,16,0,0,1-8.39,10.29Z"/><path class="cls-13" d="M68.64,112s-1.49-.54-1.84-.69a7,7,0,0,0,1.84,3.21,8.2,8.2,0,0,0,2-3.26C70.28,111.4,68.64,112,68.64,112Z"/><path class="cls-1" d="M29.43,48.83s8.67-3.67,17.25,0c0,0-.75-4.85-4.08-6.42C39.05,40.75,31.34,42.31,29.43,48.83Z"/><path class="cls-1" d="M106.68,49.33s-8.41-4.1-17.22-1c0,0,1.07-4.79,4.5-6.13C97.61,40.76,105.2,42.69,106.68,49.33Z"/><path class="cls-14" d="M141.3,193.84a1.42,1.42,0,0,1-.77-.23c-1.49-1-36.49-23.87-36.49-44.72,0-20.46,15.9-24.94,22-24.94,4.91,0,11.09,2.52,15.23,6.1,4.13-3.59,10.32-6.1,15.23-6.1,6.13,0,22,4.48,22,24.94,0,20.86-35,43.76-36.49,44.72A1.43,1.43,0,0,1,141.3,193.84Z"/><path class="cls-15" d="M156.53,125.37c4.58,0,20.61,3.19,20.61,23.52s-35.85,43.53-35.85,43.53-35.84-23.21-35.84-43.53,16-23.52,20.61-23.52,11.16,2.56,15.23,6.62c4.06-4.06,10.65-6.62,15.23-6.62m0-2.84c-4.86,0-10.89,2.31-15.23,5.69-4.34-3.38-10.37-5.69-15.23-5.69-6.52,0-23.45,4.73-23.45,26.36s35.62,44.93,37.13,45.91a2.84,2.84,0,0,0,3.08,0c1.52-1,37.14-24.29,37.14-45.91s-16.93-26.36-23.45-26.36Z"/><path class="cls-16" d="M141.3,135.3s6.54-7.16,14.66-7.16c18.64,0,19.65,20.85,19.65,20.85,0-19.4-15.3-22.44-19.67-22.44s-10.65,2.44-14.54,6.32h-.2c-3.88-3.88-10.16-6.32-14.53-6.32S107,129.6,107,149c0,0,1-20.85,19.65-20.85,8.11,0,14.66,7.16,14.66,7.16"/></g></g></svg>