<svg xmlns="http://www.w3.org/2000/svg" viewBox="0 0 137.38 243.34"><defs><style>.cls-1{fill:#efe1db;}.cls-2{fill:#fbad18;}.cls-3{fill:#d99714;}.cls-4{fill:#8e6536;}.cls-5{fill:#a87c44;}.cls-6{fill:#674822;}.cls-7{fill:#fec00f;}.cls-8{fill:#231f20;}.cls-9{fill:#fff;}.cls-10{fill:#2a1f20;}</style></defs><title>Asset 2</title><g id="Layer_2" data-name="Layer 2"><g id="owl_" data-name="owl ?"><path class="cls-1" d="M77.82,66.79A12.14,12.14,0,0,0,90,54.65a12.12,12.12,0,0,0,10.49-18.23,12.12,12.12,0,0,0-6.15-20.7,12.13,12.13,0,0,0-11-11.15,12.09,12.09,0,0,0-14.8-3.34,12.09,12.09,0,0,0-14.77,3.3h-.15A12.14,12.14,0,0,0,41.4,16.67a12.28,12.28,0,0,0,.22,2.26,12.12,12.12,0,0,0-1.53,22.24A12.12,12.12,0,0,0,51,58.61c.22,0,.44,0,.66,0a12.11,12.11,0,0,0,18.82,5.73A12.06,12.06,0,0,0,77.82,66.79Z"/><path class="cls-2" d="M52.47,228.87s-3.61,16.3-9.61,14.3.65-16.84.65-16.84Z"/><path class="cls-2" d="M43.72,226.45s-6.56,15.35-12.09,12.27,3.76-16.43,3.76-16.43Z"/><path class="cls-2" d="M84.93,228.87s3.61,16.3,9.61,14.3-.65-16.84-.65-16.84Z"/><path class="cls-2" d="M93.68,226.45s6.56,15.35,12.09,12.27S102,222.29,102,222.29Z"/><path class="cls-3" d="M41.81,230.32l.16.06q.18-.53.35-1Z"/><path class="cls-3" d="M95.34,230.11l.11,0-.37-.7Z"/><path class="cls-3" d="M43.51,226.32v0l.21.11s-.53,1.23-1.41,2.92q-.17.48-.35,1a73.43,73.43,0,0,0,9.29,2.81c.79-2.42,1.21-4.32,1.21-4.32Z"/><path class="cls-3" d="M43.51,226.34l-8.12-4s-1.14,1.65-2.39,3.92a65.28,65.28,0,0,0,8.81,4.11l.51-.95C42.93,227.64,43.46,226.44,43.51,226.34Z"/><path class="cls-3" d="M43.72,226.45l-.21-.11c0,.1-.57,1.3-1.19,3C43.19,227.68,43.72,226.45,43.72,226.45Z"/><path class="cls-3" d="M93.68,226.45l.21-.11v0l-9,2.54s.4,1.8,1.15,4.14a75.55,75.55,0,0,0,9.26-2.89l-.26-.74C94.2,227.68,93.68,226.45,93.68,226.45Z"/><path class="cls-3" d="M93.89,226.34c0,.1.57,1.3,1.19,3l.37.7a67,67,0,0,0,8.79-4.15c-1.18-2.12-2.23-3.63-2.23-3.63Z"/><path class="cls-3" d="M95.08,229.37c-.62-1.73-1.15-2.93-1.19-3l-.21.11S94.2,227.68,95.08,229.37Z"/><path class="cls-4" d="M127.77,54.56l-2,10.27a34.67,34.67,0,0,0-6.12-16.75s-3.82,37.14-51,37.25c-47.14-.11-51-37.25-51-37.25a34.67,34.67,0,0,0-6.12,16.75l-2-10.27S-7.69,133,4.17,182.32C15.87,231,63.5,230.92,68.43,231h.42c4.93-.06,52.5-.83,64.26-48.67C145.22,133,127.77,54.56,127.77,54.56Z"/><path class="cls-5" d="M68.07,134.16H59l-16.25,23.7-17.25,2.46c7.25,28,2.79,58.75,2.79,58.75C45.44,230.64,64.81,230.95,67.86,231h1c3,0,22.43-.35,39.54-11.91,0,0-4.46-30.75,2.79-58.75l-17.25-2.46-16.25-23.7h-9"/><path class="cls-2" d="M68.63,147.07a11.43,11.43,0,0,0-10.19,5.75,17.92,17.92,0,0,0,10.19,12.09,17.92,17.92,0,0,0,10.19-12.09A11.43,11.43,0,0,0,68.63,147.07Z"/><path class="cls-6" d="M136.5,161s-22.28,15.19-22.3,53.58C114.2,214.6,141.88,202.77,136.5,161Z"/><path class="cls-6" d="M.85,161s21.79,15.19,21.81,53.58C22.66,214.6-4.53,202.77.85,161Z"/><rect class="cls-6" x="59.18" y="131.66" width="19" height="9"/><path class="cls-3" d="M68.63,164.91a17.92,17.92,0,0,1-10.19-12.09,16.51,16.51,0,0,0,10.19,7.75h.06a16.51,16.51,0,0,0,10.19-7.75,17.92,17.92,0,0,1-10.19,12.09Z"/><path class="cls-6" d="M1.59,137.66a30.25,30.25,0,1,0,60.51,0H53.17a21.33,21.33,0,1,1-42.65,0Z"/><path class="cls-6" d="M126.75,137.66a21.33,21.33,0,1,1-42.65,0H75.17a30.25,30.25,0,1,0,60.51,0Z"/><ellipse class="cls-5" cx="100.79" cy="132.22" rx="22.47" ry="25.63"/><ellipse class="cls-1" cx="98.1" cy="133.16" rx="18.5" ry="21.1"/><circle class="cls-7" cx="96.26" cy="142.15" r="7.33"/><circle class="cls-8" cx="96.26" cy="142.15" r="3.58"/><circle class="cls-9" cx="93.64" cy="139.23" r="2"/><path class="cls-10" d="M75.17,134.66a30.25,30.25,0,1,0,30.25-30.25A30.25,30.25,0,0,0,75.17,134.66Zm8.93,0A21.33,21.33,0,1,1,105.43,156,21.33,21.33,0,0,1,84.1,134.66Z"/><rect class="cls-10" x="59.18" y="128.66" width="19" height="9"/><ellipse class="cls-5" cx="36.48" cy="132.22" rx="22.47" ry="25.63"/><ellipse class="cls-1" cx="39.18" cy="133.16" rx="18.5" ry="21.1"/><circle class="cls-7" cx="41.01" cy="142.15" r="7.33"/><circle class="cls-8" cx="41.01" cy="142.15" r="3.58"/><circle class="cls-9" cx="38.51" cy="139.23" r="2"/><path class="cls-10" d="M31.84,104.4A30.25,30.25,0,1,0,62.1,134.66,30.26,30.26,0,0,0,31.84,104.4Zm0,51.58a21.33,21.33,0,1,1,21.33-21.33A21.33,21.33,0,0,1,31.84,156Z"/><path class="cls-6" d="M46.67,97.47s-8.67-3.67-17.25,0c0,0,.75-4.85,4.08-6.42C37,89.39,44.76,90.94,46.67,97.47Z"/><path class="cls-6" d="M89.46,97.52s8.41-4.1,17.22-1c0,0-1.07-4.79-4.5-6.13C98.54,89,90.94,90.89,89.46,97.52Z"/><path class="cls-5" d="M72.26,51.81c0,.08,0,.27,0,.58a5.93,5.93,0,0,1-.11,1.08,7.09,7.09,0,0,1-.39,1.32,4.46,4.46,0,0,1-.84,1.33,4.81,4.81,0,0,1-1.45,1.07,6,6,0,0,1-2.22.55,6.38,6.38,0,0,1-2-.12,4,4,0,0,1-1.55-.72,3.76,3.76,0,0,1-1.08-1.37,5.79,5.79,0,0,1-.51-2.09,7,7,0,0,1,.15-2.05,5.17,5.17,0,0,1,.8-1.84,4.48,4.48,0,0,1,1.55-1.36A5.71,5.71,0,0,1,67,47.52a5,5,0,0,1,3.72.93A4.63,4.63,0,0,1,72.26,51.81ZM70.38,40.57a4.67,4.67,0,0,1-1.06,2.2,2.54,2.54,0,0,1-1.69.85,3.55,3.55,0,0,1-1.81-.29A1.5,1.5,0,0,1,65,42a11.11,11.11,0,0,1,.5-4.58,14.41,14.41,0,0,1,1.86-3.59,23.68,23.68,0,0,1,2.54-3A34.19,34.19,0,0,0,72.4,28a13.85,13.85,0,0,0,1.89-3.12,7.87,7.87,0,0,0,.56-3.8,4.3,4.3,0,0,0-.6-2A4.12,4.12,0,0,0,73,17.77a4.73,4.73,0,0,0-1.63-.66A6.31,6.31,0,0,0,69.61,17a2.83,2.83,0,0,0-1.35.51A8.17,8.17,0,0,0,67,18.57a8.07,8.07,0,0,0-1,1.22,3.58,3.58,0,0,0-.5,1,3,3,0,0,1-1,1,3.15,3.15,0,0,1-1.26.37,2.25,2.25,0,0,1-1.1-.21,3.06,3.06,0,0,1-1-.72,4.4,4.4,0,0,1-.75-1.13,4.13,4.13,0,0,1-.37-1.46,2.52,2.52,0,0,1,.33-1.36,11.14,11.14,0,0,1,1.87-2.46,12.35,12.35,0,0,1,2.42-1.88,13.21,13.21,0,0,1,2.76-1.24,12.74,12.74,0,0,1,2.88-.57,13.21,13.21,0,0,1,3.73.28,11,11,0,0,1,3.66,1.49,9.66,9.66,0,0,1,2.87,2.84A8.81,8.81,0,0,1,81.84,20a16.63,16.63,0,0,1-.32,5.27,13.92,13.92,0,0,1-1.6,3.92,16,16,0,0,1-2.39,3q-1.35,1.34-2.7,2.61t-2.55,2.65A10.88,10.88,0,0,0,70.38,40.57Z"/><circle class="cls-1" cx="68.35" cy="74.92" r="4"/></g></g></svg>