<svg xmlns="http://www.w3.org/2000/svg" viewBox="0 0 137.38 195.26"><defs><style>.cls-1{fill:#fbad18;}.cls-2{fill:#d99714;}.cls-3{fill:#8e6536;}.cls-4{fill:#a87c44;}.cls-5{fill:#674822;}.cls-6{fill:#efe1db;}.cls-7{fill:#fec00f;}.cls-8{fill:#231f20;}.cls-9{fill:#fff;}.cls-10{fill:#2a1f20;}.cls-11{fill:#ad790a;}.cls-12{fill:#ae3114;}.cls-13{fill:#da471f;}.cls-14{fill:#bc3d19;}.cls-15{fill:#d9d9d9;}.cls-16{fill:#7e6f6f;}</style></defs><title>Asset 1</title><g id="Layer_2" data-name="Layer 2"><g id="owl_school" data-name="owl school"><path class="cls-1" d="M52.47,180.79s-3.61,16.3-9.61,14.3.65-16.84.65-16.84Z"/><path class="cls-1" d="M43.72,178.37s-6.57,15.35-12.09,12.27,3.76-16.43,3.76-16.43Z"/><path class="cls-1" d="M84.93,180.79s3.61,16.3,9.61,14.3-.65-16.84-.65-16.84Z"/><path class="cls-1" d="M93.68,178.37s6.57,15.35,12.09,12.27S102,174.22,102,174.22Z"/><path class="cls-2" d="M41.81,182.25l.16.06q.18-.53.35-1Z"/><path class="cls-2" d="M95.34,182l.11,0-.37-.7Z"/><path class="cls-2" d="M43.51,178.25v0l.21.11s-.53,1.23-1.41,2.92q-.17.48-.35,1a73.5,73.5,0,0,0,9.29,2.81c.79-2.42,1.21-4.32,1.21-4.32Z"/><path class="cls-2" d="M43.51,178.27l-8.12-4s-1.14,1.65-2.39,3.92a65.23,65.23,0,0,0,8.81,4.11l.51-.95C42.93,179.56,43.47,178.36,43.51,178.27Z"/><path class="cls-2" d="M43.72,178.37l-.21-.11c0,.1-.57,1.3-1.19,3C43.2,179.61,43.72,178.37,43.72,178.37Z"/><path class="cls-2" d="M93.68,178.37l.21-.11v0l-9,2.54s.4,1.8,1.15,4.14A75.58,75.58,0,0,0,95.34,182l-.26-.74C94.2,179.61,93.68,178.37,93.68,178.37Z"/><path class="cls-2" d="M93.89,178.27c0,.1.57,1.3,1.19,3l.37.7a67,67,0,0,0,8.79-4.15c-1.18-2.12-2.23-3.63-2.23-3.63Z"/><path class="cls-2" d="M95.08,181.3c-.62-1.73-1.15-2.93-1.19-3l-.21.11S94.2,179.61,95.08,181.3Z"/><path class="cls-3" d="M127.77,6.48l-2,10.27A34.67,34.67,0,0,0,119.6,0s-3.82,37.14-51,37.25C21.5,37.14,17.67,0,17.67,0a34.67,34.67,0,0,0-6.12,16.75l-2-10.27s-17.2,78.4-5.33,127.77c11.7,48.67,59.33,48.6,64.25,48.66h.42c4.93-.06,52.49-.83,64.25-48.66C145.22,84.95,127.77,6.48,127.77,6.48Z"/><path class="cls-4" d="M68.07,86.08H59l-16.25,23.7-17.25,2.46c7.25,28,2.79,58.75,2.79,58.75,17.12,11.56,36.49,11.87,39.54,11.91h1c3,0,22.43-.35,39.54-11.91,0,0-4.46-30.75,2.79-58.75l-17.25-2.46L77.68,86.08h-9"/><path class="cls-1" d="M68.64,99s-5.79-.5-9,5.75c0,0,1.5,10.51,9,14.09,7.54-3.58,9-14.09,9-14.09C74.43,98.5,68.64,99,68.64,99Z"/><path class="cls-5" d="M136.51,112.95s-22.28,15.19-22.31,53.58C114.2,166.53,141.89,154.7,136.51,112.95Z"/><path class="cls-5" d="M.84,112.95s22.28,15.19,22.31,53.58C23.14,166.53-4.54,154.7.84,112.95Z"/><rect class="cls-5" x="59.18" y="83.58" width="19" height="9"/><path class="cls-2" d="M68.64,118.84c-7.54-3.58-9-14.09-9-14.09a15.27,15.27,0,0,0,9,7.75h.05a15.28,15.28,0,0,0,9-7.75s-1.5,10.51-9,14.09Z"/><path class="cls-5" d="M1.59,89.58a30.25,30.25,0,1,0,60.51,0H53.17a21.33,21.33,0,0,1-42.65,0Z"/><path class="cls-5" d="M126.76,89.58a21.33,21.33,0,1,1-42.65,0H75.17a30.26,30.26,0,0,0,60.51,0Z"/><ellipse class="cls-4" cx="100.79" cy="84.15" rx="22.47" ry="25.63"/><ellipse class="cls-6" cx="98.1" cy="85.08" rx="18.5" ry="21.1"/><circle class="cls-7" cx="96.26" cy="83.08" r="7.33"/><circle class="cls-8" cx="96.26" cy="83.08" r="3.58"/><circle class="cls-9" cx="93.64" cy="80.17" r="2"/><path class="cls-10" d="M75.17,86.58a30.26,30.26,0,1,0,30.26-30.25A30.26,30.26,0,0,0,75.17,86.58Zm8.93,0a21.33,21.33,0,1,1,21.33,21.33A21.33,21.33,0,0,1,84.1,86.58Z"/><rect class="cls-10" x="59.18" y="80.58" width="19" height="9"/><ellipse class="cls-4" cx="36.48" cy="84.15" rx="22.47" ry="25.63"/><ellipse class="cls-6" cx="39.18" cy="85.08" rx="18.5" ry="21.1"/><circle class="cls-7" cx="41.01" cy="83.08" r="7.33"/><circle class="cls-8" cx="41.01" cy="83.08" r="3.58"/><circle class="cls-9" cx="38.51" cy="80.17" r="2"/><path class="cls-10" d="M31.84,56.33A30.25,30.25,0,1,0,62.1,86.58,30.25,30.25,0,0,0,31.84,56.33Zm0,51.58A21.33,21.33,0,1,1,53.17,86.58,21.33,21.33,0,0,1,31.84,107.91Z"/><path class="cls-11" d="M68.79,116.08a15.77,15.77,0,0,1-8.39-9.9s2.16,3.86,8.24,5.81h.05a15.41,15.41,0,0,0,8.49-6.21,16,16,0,0,1-8.39,10.29Z"/><path class="cls-12" d="M68.64,112s-1.49-.54-1.84-.69a7,7,0,0,0,1.84,3.21,8.22,8.22,0,0,0,2-3.26C70.28,111.4,68.64,112,68.64,112Z"/><path class="cls-5" d="M29.42,52.84s8.67-3.67,17.25,0c0,0-.75-4.85-4.08-6.42C39.05,44.75,31.34,46.31,29.42,52.84Z"/><path class="cls-5" d="M106.68,53.33s-8.41-4.1-17.22-1c0,0,1.07-4.79,4.5-6.13C97.61,44.76,105.2,46.7,106.68,53.33Z"/><path class="cls-5" d="M68.35,36.38l-29.18,5.7s4.76,4.82,18.74.64a44.07,44.07,0,0,1,10.44-1.5,44.08,44.08,0,0,1,10.44,1.5c14,4.18,18.53-.44,18.53-.44Z"/><rect class="cls-13" x="65.61" y="2.17" width="5.33" height="2.58"/><path class="cls-13" d="M37.81,30.13a30.62,30.62,0,0,1,.78-3.56A30.64,30.64,0,0,0,37.81,30.13Z"/><path class="cls-13" d="M37.6,31.75c0-.28.06-.55.1-.82C37.66,31.2,37.63,31.47,37.6,31.75Z"/><path class="cls-13" d="M37.49,33.14c0-.1,0-.21,0-.31C37.5,32.94,37.5,33,37.49,33.14Z"/><path class="cls-13" d="M37.44,34.43l.45-.1-.45,0S37.44,34.41,37.44,34.43Z"/><path class="cls-13" d="M45.88,28.88c1.61-21,15.85-21.47,20.74-24.82a30.93,30.93,0,0,0-28,22.49S39.89,29.34,45.88,28.88Z"/><path class="cls-13" d="M99.26,34.28c0-.65-.05-1.28-.11-1.92.05.63.09,1.27.1,1.92Z"/><path class="cls-13" d="M90.81,28.88c6,.46,7.29-2.33,7.29-2.33a30.84,30.84,0,0,1,1.06,5.78A30.92,30.92,0,0,0,70.08,4.05C75,7.4,89.14,9.16,90.81,28.88Z"/><path class="cls-9" d="M46.32,28.84a25.44,25.44,0,0,0,3.43-.59c9.37-2.25,16.08-3,18.95-3s8.88.75,18.25,3a25.5,25.5,0,0,0,3.45.59C87.48,16.94,74.75,7.26,70.08,4.05,69.51,4,68.93,4,68.35,4s-1.16,0-1.73.05C62,7.26,49.23,16.94,46.32,28.84Z"/><path class="cls-9" d="M45.88,28.88l.44,0C49.23,16.94,62,7.26,66.63,4.05,61.73,7.41,47.49,7.84,45.88,28.88Z"/><path class="cls-9" d="M90.39,28.84l.42,0C89.14,9.16,75,7.4,70.08,4.05,74.75,7.26,87.48,16.94,90.39,28.84Z"/><path class="cls-13" d="M37.51,32.83c0-.36.06-.72.1-1.08C37.57,32.11,37.53,32.47,37.51,32.83Z"/><path class="cls-13" d="M37.7,30.93c0-.26.07-.53.11-.79C37.77,30.39,37.74,30.66,37.7,30.93Z"/><path class="cls-13" d="M91,32.83a171.94,171.94,0,0,0-22.29-1.36h-.34a169.51,169.51,0,0,0-22.63,1.45c-2.88.4-5.51.88-7.84,1.41l30.8-1.41,30.57,1.44s0-.05,0-.08C96.81,33.72,94,33.23,91,32.83Z"/><path class="cls-13" d="M37.43,34.35h0c0-.41,0-.81,0-1.21C37.47,33.55,37.43,33.95,37.43,34.35Z"/><path class="cls-13" d="M99.16,32.32v0Z"/><path class="cls-13" d="M38.59,26.54v0Z"/><path class="cls-14" d="M45.88,28.88c-6,.46-7.28-2.32-7.29-2.33v0a30.62,30.62,0,0,0-.78,3.56c0,.26-.07.53-.11.79s-.07.55-.1.82-.07.72-.1,1.08c0,.1,0,.21,0,.31,0,.4,0,.8,0,1.21l.45,0c2.33-.54,5-1,7.84-1.41C45.73,31.49,45.79,30.15,45.88,28.88Z"/><path class="cls-14" d="M90.81,28.88c.11,1.25.17,2.56.17,3.95,3,.41,5.84.89,8.28,1.45,0-.64,0-1.29-.1-1.92v0a30.84,30.84,0,0,0-1.06-5.78S96.82,29.34,90.81,28.88Z"/><path class="cls-15" d="M90.81,28.88l-.42,0a25.5,25.5,0,0,1-3.45-.59c-9.37-2.25-15.38-3-18.25-3s-9.57.75-18.95,3a25.44,25.44,0,0,1-3.43.59l-.44,0c-.1,1.27-.15,2.61-.15,4a169.51,169.51,0,0,1,22.63-1.45h.34A171.94,171.94,0,0,1,91,32.83C91,31.43,90.92,30.12,90.81,28.88Z"/><path class="cls-13" d="M68.69,38.09c17.08,0,30.59,13.93,30.59-3.16,0-.22,0-.44,0-.66-7.62-1.73-15.07-4.81-30.57-4.81-15.75,0-23.61,3.15-31.25,5,0,.17,0,.33,0,.5C37.43,52,51.61,38.09,68.69,38.09Z"/><path class="cls-14" d="M68.88,38.09c-17.08,0-31.45,14.08-31.45-3,0-.22,0-.44,0-.66,0,0,1.57,7.72,5.94,6.72s11.92-5.41,25.29-5.41h0C82.06,35.75,88.95,40,93.32,41s5.94-6.72,5.94-6.72c0,.22,0,.44,0,.66,0,17.08-13.51,3.16-30.59,3.16"/><path class="cls-16" d="M22.74,166.62"/></g></g></svg>