<svg xmlns="http://www.w3.org/2000/svg" viewBox="0 0 137.38 195.26"><defs><style>.cls-1{fill:#fbad18;}.cls-2{fill:#d99714;}.cls-3{fill:#8e6536;}.cls-4{fill:#a87c44;}.cls-5{fill:#674822;}.cls-6{fill:#efe1db;}.cls-7{fill:#fec00f;}.cls-8{fill:#231f20;}.cls-9{fill:#fff;}.cls-10{fill:#2a1f20;}.cls-11{fill:#ad790a;}.cls-12{fill:#ae3114;}</style></defs><title>Asset 3</title><g id="Layer_2" data-name="Layer 2"><g id="owl"><path class="cls-1" d="M52.47,180.79s-3.61,16.3-9.61,14.3.65-16.84.65-16.84Z"/><path class="cls-1" d="M43.72,178.37s-6.56,15.35-12.09,12.27,3.76-16.43,3.76-16.43Z"/><path class="cls-1" d="M84.92,180.79s3.61,16.3,9.61,14.3-.65-16.84-.65-16.84Z"/><path class="cls-1" d="M93.67,178.37s6.56,15.35,12.09,12.27S102,174.22,102,174.22Z"/><path class="cls-2" d="M41.81,182.25l.16.06q.18-.53.35-1Z"/><path class="cls-2" d="M95.34,182l.11,0-.37-.7Z"/><path class="cls-2" d="M43.51,178.25v0l.21.11s-.53,1.23-1.41,2.92q-.17.48-.35,1a73.45,73.45,0,0,0,9.29,2.81c.79-2.42,1.21-4.32,1.21-4.32Z"/><path class="cls-2" d="M43.51,178.27l-8.12-4s-1.14,1.65-2.39,3.92a65.29,65.29,0,0,0,8.81,4.11l.51-.95C42.93,179.56,43.46,178.36,43.51,178.27Z"/><path class="cls-2" d="M43.72,178.37l-.21-.11c0,.1-.57,1.3-1.19,3C43.19,179.61,43.72,178.37,43.72,178.37Z"/><path class="cls-2" d="M93.67,178.37l.21-.11v0l-9,2.54s.4,1.8,1.15,4.14A75.57,75.57,0,0,0,95.34,182l-.26-.74C94.2,179.61,93.67,178.37,93.67,178.37Z"/><path class="cls-2" d="M93.89,178.27c0,.1.57,1.3,1.19,3l.37.7a67,67,0,0,0,8.79-4.15c-1.18-2.12-2.23-3.63-2.23-3.63Z"/><path class="cls-2" d="M95.08,181.3c-.62-1.73-1.15-2.93-1.19-3l-.21.11S94.2,179.61,95.08,181.3Z"/><path class="cls-3" d="M127.76,6.48l-2,10.27A34.67,34.67,0,0,0,119.6,0s-3.82,37.14-51,37.25C21.5,37.14,17.67,0,17.67,0a34.67,34.67,0,0,0-6.12,16.75l-2-10.27s-17.2,78.4-5.33,127.77c11.7,48.67,59.33,48.6,64.25,48.66h.42c4.93-.06,52.5-.83,64.26-48.66C145.22,84.95,127.76,6.48,127.76,6.48Z"/><path class="cls-4" d="M68.07,86.08H59l-16.25,23.7-17.25,2.46c7.25,28,2.79,58.75,2.79,58.75,17.12,11.56,36.49,11.87,39.54,11.91h1c3,0,22.43-.35,39.54-11.91,0,0-4.46-30.75,2.79-58.75l-17.25-2.46L77.68,86.08h-9"/><path class="cls-1" d="M68.63,99s-5.79-.5-9,5.75c0,0,1.5,10.51,9,14.09,7.54-3.58,9-14.09,9-14.09C74.43,98.5,68.63,99,68.63,99Z"/><path class="cls-5" d="M136.5,112.95s-22.28,15.19-22.3,53.58C114.2,166.53,141.88,154.7,136.5,112.95Z"/><path class="cls-5" d="M.85,112.95s21.79,15.19,21.81,53.58C22.66,166.53-4.53,154.7.85,112.95Z"/><rect class="cls-5" x="59.18" y="83.58" width="19" height="9"/><path class="cls-2" d="M68.63,118.84c-7.54-3.58-9-14.09-9-14.09a15.28,15.28,0,0,0,9,7.75h.06a15.28,15.28,0,0,0,9-7.75s-1.5,10.51-9,14.09Z"/><path class="cls-5" d="M1.59,89.58a30.25,30.25,0,1,0,60.51,0H53.17a21.33,21.33,0,1,1-42.65,0Z"/><path class="cls-5" d="M126.75,89.58a21.33,21.33,0,1,1-42.65,0H75.17a30.25,30.25,0,1,0,60.51,0Z"/><ellipse class="cls-4" cx="100.79" cy="84.15" rx="22.47" ry="25.63"/><ellipse class="cls-6" cx="98.09" cy="85.08" rx="18.5" ry="21.1"/><circle class="cls-7" cx="96.26" cy="83.08" r="7.33"/><circle class="cls-8" cx="96.26" cy="83.08" r="3.58"/><circle class="cls-9" cx="93.64" cy="80.17" r="2"/><path class="cls-10" d="M75.17,86.58a30.25,30.25,0,1,0,30.25-30.25A30.25,30.25,0,0,0,75.17,86.58Zm8.93,0a21.33,21.33,0,1,1,21.33,21.33A21.33,21.33,0,0,1,84.1,86.58Z"/><rect class="cls-10" x="59.18" y="80.58" width="19" height="9"/><ellipse class="cls-4" cx="36.48" cy="84.15" rx="22.47" ry="25.63"/><ellipse class="cls-6" cx="39.18" cy="85.08" rx="18.5" ry="21.1"/><circle class="cls-7" cx="41.01" cy="83.08" r="7.33"/><circle class="cls-8" cx="41.01" cy="83.08" r="3.58"/><circle class="cls-9" cx="38.51" cy="80.17" r="2"/><path class="cls-10" d="M31.84,56.33A30.25,30.25,0,1,0,62.1,86.58,30.26,30.26,0,0,0,31.84,56.33Zm0,51.58A21.33,21.33,0,1,1,53.17,86.58,21.33,21.33,0,0,1,31.84,107.91Z"/><path class="cls-11" d="M68.79,116.08a15.77,15.77,0,0,1-8.39-9.9s2.16,3.86,8.24,5.81h.05a15.41,15.41,0,0,0,8.49-6.21,16,16,0,0,1-8.39,10.29Z"/><path class="cls-12" d="M68.64,112s-1.49-.54-1.84-.69a7,7,0,0,0,1.84,3.21,8.2,8.2,0,0,0,2-3.26C70.28,111.4,68.64,112,68.64,112Z"/><path class="cls-5" d="M29.42,48.83s8.67-3.67,17.25,0c0,0-.75-4.85-4.08-6.42C39,40.75,31.34,42.31,29.42,48.83Z"/><path class="cls-5" d="M106.68,49.33s-8.41-4.1-17.22-1c0,0,1.07-4.79,4.5-6.13C97.6,40.76,105.2,42.69,106.68,49.33Z"/></g></g></svg>