<svg xmlns="http://www.w3.org/2000/svg" viewBox="0 0 692.79 661.83"><defs><style>.cls-1{fill:none;stroke:#e2e2e2;stroke-linecap:round;stroke-linejoin:round;stroke-width:60px;}.cls-2{fill:#fcb813;}.cls-3{fill:#ffc44e;}</style></defs><title>Asset 1</title><g id="Layer_2" data-name="Layer 2"><g id="Layer_1-2" data-name="Layer 1"><polygon class="cls-1" points="346.4 30 444.17 228.11 662.79 259.87 504.6 414.08 541.94 631.83 346.4 529.02 150.85 631.83 188.2 414.08 30 259.87 248.63 228.11 346.4 30"/><polygon class="cls-2" points="346.4 30 444.17 228.11 662.79 259.87 504.6 414.08 541.94 631.83 346.4 529.02 150.85 631.83 188.2 414.08 30 259.87 248.63 228.11 346.4 30"/><path class="cls-3" d="M150.78,631.6l195.62-269-158.27,51.3ZM346.27,528.93l195.55,102.8L346.4,362.55ZM30.07,259.65,346.4,362.55,248.7,227.88Zm632.72.22L346.4,362.55l158.2,51.53Zm-316.28-230-.12,332.64L444.29,228Z"/></g></g></svg>